<svg width="118" height="133" viewBox="0 0 118 133" fill="none" xmlns="http://www.w3.org/2000/svg">
<path d="M3 35.8699L58.6459 4L115 35.8699V97.0804L58.6459 129.76L3 97.0804V35.8699Z" stroke="#FFD278" stroke-width="5.26107"/>
<path d="M27.1594 61.085C27.0425 59.9911 26.5498 59.1394 25.6814 58.5298C24.8213 57.9202 23.7023 57.6154 22.3245 57.6154C21.3559 57.6154 20.525 57.7616 19.8319 58.0538C19.1388 58.3461 18.6086 58.7427 18.2412 59.2438C17.8738 59.7448 17.6859 60.3168 17.6775 60.9598C17.6775 61.4942 17.7986 61.9576 18.0408 62.3501C18.2913 62.7426 18.6295 63.0766 19.0553 63.3522C19.4812 63.6194 19.953 63.8448 20.4707 64.0285C20.9885 64.2123 21.5104 64.3667 22.0364 64.492L24.4413 65.0932C25.41 65.3187 26.3411 65.6235 27.2346 66.0076C28.1364 66.3917 28.9422 66.876 29.652 67.4606C30.3701 68.0451 30.938 68.7507 31.3555 69.5774C31.773 70.4041 31.9818 71.3727 31.9818 72.4833C31.9818 73.9864 31.5976 75.3099 30.8294 76.4539C30.0612 77.5896 28.9506 78.4789 27.4976 79.1219C26.053 79.7565 24.3036 80.0738 22.2494 80.0738C20.2536 80.0738 18.5209 79.7649 17.0512 79.1469C15.5899 78.529 14.4459 77.6272 13.6192 76.4414C12.8009 75.2557 12.3583 73.811 12.2915 72.1076H16.8634C16.9302 73.0011 17.2057 73.7442 17.69 74.3371C18.1744 74.93 18.8048 75.3726 19.5814 75.6648C20.3663 75.9571 21.2431 76.1032 22.2118 76.1032C23.2222 76.1032 24.1073 75.9529 24.8672 75.6523C25.6355 75.3433 26.2367 74.9175 26.6709 74.3747C27.1051 73.8236 27.3264 73.1806 27.3348 72.4457C27.3264 71.7777 27.1302 71.2266 26.7461 70.7924C26.3619 70.3498 25.8233 69.9824 25.1303 69.6901C24.4455 69.3895 23.6439 69.1223 22.7253 68.8885L19.8069 68.1369C17.6942 67.5942 16.0241 66.7717 14.7966 65.6694C13.5775 64.5588 12.9679 63.0849 12.9679 61.2479C12.9679 59.7364 13.3771 58.4129 14.1954 57.2772C15.0221 56.1416 16.1452 55.2606 17.5648 54.6343C18.9844 53.9997 20.5918 53.6824 22.3871 53.6824C24.2075 53.6824 25.8025 53.9997 27.1719 54.6343C28.5497 55.2606 29.6311 56.1332 30.4161 57.2522C31.201 58.3628 31.606 59.6404 31.631 61.085H27.1594ZM59.0465 66.8593C59.0465 69.6233 58.5287 71.9907 57.4933 73.9613C56.4662 75.9237 55.0633 77.4268 53.2847 78.4706C51.5144 79.5144 49.5061 80.0363 47.2599 80.0363C45.0136 80.0363 43.0012 79.5144 41.2225 78.4706C39.4522 77.4184 38.0494 75.9112 37.0139 73.9488C35.9868 71.9781 35.4733 69.615 35.4733 66.8593C35.4733 64.0953 35.9868 61.7322 37.0139 59.7698C38.0494 57.7991 39.4522 56.2919 41.2225 55.2481C43.0012 54.2043 45.0136 53.6824 47.2599 53.6824C49.5061 53.6824 51.5144 54.2043 53.2847 55.2481C55.0633 56.2919 56.4662 57.7991 57.4933 59.7698C58.5287 61.7322 59.0465 64.0953 59.0465 66.8593ZM54.3744 66.8593C54.3744 64.9137 54.0696 63.2728 53.46 61.9368C52.8588 60.5924 52.0238 59.5778 50.9549 58.893C49.8861 58.2 48.6544 57.8534 47.2599 57.8534C45.8653 57.8534 44.6337 58.2 43.5648 58.893C42.496 59.5778 41.6567 60.5924 41.0472 61.9368C40.4459 63.2728 40.1453 64.9137 40.1453 66.8593C40.1453 68.805 40.4459 70.45 41.0472 71.7944C41.6567 73.1305 42.496 74.1451 43.5648 74.8381C44.6337 75.5229 45.8653 75.8652 47.2599 75.8652C48.6544 75.8652 49.8861 75.5229 50.9549 74.8381C52.0238 74.1451 52.8588 73.1305 53.46 71.7944C54.0696 70.45 54.3744 68.805 54.3744 66.8593ZM61.1758 57.9286V54.0331H81.6426V57.9286H73.7139V79.6855H69.1045V57.9286H61.1758ZM85.7824 79.6855H80.8222L89.8532 54.0331H95.5899L104.633 79.6855H99.6732L92.8217 59.2939H92.6213L85.7824 79.6855ZM85.9452 69.6275H99.4728V73.3601H85.9452V69.6275Z" fill="#FFD278"/>
</svg>
