<svg width="337" height="379" viewBox="0 0 337 379" fill="none" xmlns="http://www.w3.org/2000/svg">
<path d="M8 100.358L167.513 9L329.057 100.358V275.822L167.513 369.5L8 275.822V100.358Z" stroke="#61331B" stroke-width="15.0813"/>
<path d="M77.2588 173.172C76.9237 170.037 75.5114 167.595 73.022 165.848C70.5565 164.1 67.3489 163.226 63.3993 163.226C60.6226 163.226 58.2408 163.645 56.2541 164.483C54.2673 165.321 52.7473 166.458 51.6941 167.894C50.6408 169.33 50.1022 170.97 50.0783 172.813C50.0783 174.345 50.4254 175.674 51.1196 176.799C51.8377 177.924 52.8071 178.881 54.0279 179.671C55.2487 180.437 56.6012 181.084 58.0853 181.61C59.5694 182.137 61.0654 182.58 62.5735 182.939L69.4673 184.662C72.244 185.308 74.913 186.182 77.4743 187.283C80.0595 188.384 82.3694 189.773 84.4041 191.448C86.4627 193.124 88.0904 195.147 89.2872 197.516C90.4841 199.886 91.0825 202.663 91.0825 205.846C91.0825 210.155 89.9814 213.949 87.7792 217.229C85.577 220.484 82.3934 223.033 78.2283 224.876C74.0872 226.696 69.0724 227.605 63.1838 227.605C57.4629 227.605 52.4959 226.72 48.283 224.948C44.094 223.177 40.8147 220.592 38.4449 217.193C36.099 213.794 34.8304 209.652 34.6389 204.769H47.7444C47.9359 207.331 48.7259 209.461 50.1142 211.16C51.5026 212.86 53.3098 214.129 55.536 214.966C57.786 215.804 60.2994 216.223 63.0761 216.223C65.9725 216.223 68.5098 215.792 70.6881 214.931C72.8903 214.045 74.6138 212.824 75.8585 211.268C77.1033 209.688 77.7376 207.845 77.7615 205.739C77.7376 203.824 77.1751 202.244 76.074 200.999C74.9729 199.731 73.4289 198.677 71.4421 197.84C69.4793 196.978 67.1813 196.212 64.5483 195.542L56.1823 193.387C50.1262 191.831 45.3388 189.474 41.82 186.314C38.3252 183.13 36.5778 178.905 36.5778 173.639C36.5778 169.307 37.7507 165.512 40.0965 162.257C42.4663 159.002 45.6858 156.476 49.7551 154.681C53.8245 152.862 58.4323 151.952 63.5788 151.952C68.7971 151.952 73.3691 152.862 77.2948 154.681C81.2444 156.476 84.3442 158.978 86.5943 162.185C88.8444 165.369 90.0053 169.031 90.0771 173.172H77.2588ZM168.666 189.725C168.666 197.648 167.181 204.434 164.213 210.083C161.269 215.709 157.248 220.017 152.149 223.009C147.074 226.001 141.317 227.498 134.878 227.498C128.439 227.498 122.67 226.001 117.572 223.009C112.497 219.993 108.476 215.673 105.508 210.047C102.563 204.398 101.091 197.624 101.091 189.725C101.091 181.802 102.563 175.027 105.508 169.402C108.476 163.753 112.497 159.432 117.572 156.44C122.67 153.448 128.439 151.952 134.878 151.952C141.317 151.952 147.074 153.448 152.149 156.44C157.248 159.432 161.269 163.753 164.213 169.402C167.181 175.027 168.666 181.802 168.666 189.725ZM155.273 189.725C155.273 184.148 154.399 179.444 152.652 175.614C150.928 171.76 148.534 168.852 145.471 166.889C142.407 164.902 138.876 163.909 134.878 163.909C130.881 163.909 127.35 164.902 124.286 166.889C121.222 168.852 118.817 171.76 117.069 175.614C115.346 179.444 114.484 184.148 114.484 189.725C114.484 195.302 115.346 200.018 117.069 203.872C118.817 207.702 121.222 210.61 124.286 212.597C127.35 214.56 130.881 215.541 134.878 215.541C138.876 215.541 142.407 214.56 145.471 212.597C148.534 210.61 150.928 207.702 152.652 203.872C154.399 200.018 155.273 195.302 155.273 189.725ZM174.77 164.124V152.957H233.439V164.124H210.711V226.492H197.498V164.124H174.77ZM245.306 226.492H231.087L256.975 152.957H273.42L299.344 226.492H285.125L265.485 168.038H264.911L245.306 226.492ZM245.773 197.66H284.551V208.36H245.773V197.66Z" fill="#61331B"/>
</svg>
