<svg width="29" height="29" viewBox="0 0 29 29" fill="none" xmlns="http://www.w3.org/2000/svg">
<mask id="path-1-inside-1_1_31" fill="white">
<path d="M29 14.5C29 22.5081 22.5081 29 14.5 29C6.49187 29 0 22.5081 0 14.5C0 6.49187 6.49187 0 14.5 0C22.5081 0 29 6.49187 29 14.5Z"/>
</mask>
<path d="M9 14C8.44771 14 8 14.4477 8 15C8 15.5523 8.44771 16 9 16V15V14ZM21.7071 15.7071C22.0976 15.3166 22.0976 14.6834 21.7071 14.2929L15.3431 7.92893C14.9526 7.53841 14.3195 7.53841 13.9289 7.92893C13.5384 8.31946 13.5384 8.95262 13.9289 9.34315L19.5858 15L13.9289 20.6569C13.5384 21.0474 13.5384 21.6805 13.9289 22.0711C14.3195 22.4616 14.9526 22.4616 15.3431 22.0711L21.7071 15.7071ZM9 15V16H21V15V14H9V15ZM29 14.5H27C27 21.4036 21.4036 27 14.5 27V29V31C23.6127 31 31 23.6127 31 14.5H29ZM14.5 29V27C7.59644 27 2 21.4036 2 14.5H0H-2C-2 23.6127 5.3873 31 14.5 31V29ZM0 14.5H2C2 7.59644 7.59644 2 14.5 2V0V-2C5.3873 -2 -2 5.3873 -2 14.5H0ZM14.5 0V2C21.4036 2 27 7.59644 27 14.5H29H31C31 5.3873 23.6127 -2 14.5 -2V0Z" fill="#FFD278" mask="url(#path-1-inside-1_1_31)"/>
</svg>
